<mxfile host="Electron" agent="Mozilla/5.0 (Windows NT 10.0; Win64; x64) AppleWebKit/537.36 (KHTML, like Gecko) draw.io/26.2.2 Chrome/134.0.6998.178 Electron/35.1.2 Safari/537.36" version="26.2.2">
  <diagram name="Страница — 1" id="rlaFX4uIKAKVswi_poVL">
    <mxGraphModel dx="418" dy="254" grid="0" gridSize="10" guides="1" tooltips="1" connect="1" arrows="1" fold="1" page="1" pageScale="1" pageWidth="827" pageHeight="1169" math="0" shadow="0">
      <root>
        <mxCell id="0" />
        <mxCell id="1" parent="0" />
        <mxCell id="HHp20uBqMHYSWkb5vcoe-1" value="Пользователь" style="shape=umlActor;verticalLabelPosition=bottom;verticalAlign=top;html=1;outlineConnect=0;" vertex="1" parent="1">
          <mxGeometry x="361" y="259" width="30" height="60" as="geometry" />
        </mxCell>
        <mxCell id="HHp20uBqMHYSWkb5vcoe-2" value="" style="endArrow=classic;html=1;rounded=0;" edge="1" parent="1">
          <mxGeometry width="50" height="50" relative="1" as="geometry">
            <mxPoint x="397" y="290" as="sourcePoint" />
            <mxPoint x="454" y="315" as="targetPoint" />
          </mxGeometry>
        </mxCell>
        <mxCell id="HHp20uBqMHYSWkb5vcoe-3" value="Главный экран для просмотра занятий" style="ellipse;whiteSpace=wrap;html=1;" vertex="1" parent="1">
          <mxGeometry x="429" y="319" width="102" height="71" as="geometry" />
        </mxCell>
        <mxCell id="HHp20uBqMHYSWkb5vcoe-4" value="Экран настроек для кастомизации приложения" style="ellipse;whiteSpace=wrap;html=1;" vertex="1" parent="1">
          <mxGeometry x="214" y="324" width="107" height="66" as="geometry" />
        </mxCell>
        <mxCell id="HHp20uBqMHYSWkb5vcoe-5" value="" style="endArrow=classic;html=1;rounded=0;" edge="1" parent="1">
          <mxGeometry width="50" height="50" relative="1" as="geometry">
            <mxPoint x="342" y="291" as="sourcePoint" />
            <mxPoint x="290" y="318" as="targetPoint" />
          </mxGeometry>
        </mxCell>
      </root>
    </mxGraphModel>
  </diagram>
</mxfile>
